<svg version="1.1" id="Layer_1" xmlns="http://www.w3.org/2000/svg" xmlns:xlink="http://www.w3.org/1999/xlink" x="0px" y="0px"
	 width="100%" viewBox="0 0 2560 2560" enable-background="new 0 0 2560 2560" xml:space="preserve">
<path fill="#5A046A" opacity="1.000000" stroke="none" 
	d="
M1770.000000,2562.000000 
	C1180.000000,2562.000000 591.000000,2562.000000 2.000000,2562.000000 
	C2.000000,1708.666626 2.000000,855.333313 2.000000,2.000000 
	C855.333313,2.000000 1708.666626,2.000000 2562.000000,2.000000 
	C2562.000000,855.333313 2562.000000,1708.666626 2562.000000,2562.000000 
	C2298.333252,2562.000000 2034.666626,2562.000000 1770.000000,2562.000000 
M1033.083496,1340.611572 
	C1028.628662,1343.947021 1028.849365,1347.723877 1032.219116,1351.603638 
	C1034.400513,1354.115234 1036.776733,1356.463013 1039.131226,1358.818604 
	C1074.942383,1394.646851 1110.769287,1430.459351 1146.574463,1466.293335 
	C1149.329224,1469.050049 1151.949341,1471.941284 1155.079590,1475.242188 
	C1151.719604,1478.762939 1149.051514,1481.672974 1146.263306,1484.463257 
	C1110.927979,1519.824707 1075.599854,1555.193359 1040.215332,1590.505493 
	C1026.187500,1604.504761 1026.446777,1603.216675 1039.811646,1616.563721 
	C1139.559814,1716.180054 1239.208740,1815.895996 1338.907104,1915.562378 
	C1347.986450,1924.638794 1351.884155,1924.773315 1360.453613,1916.207520 
	C1460.864136,1815.839355 1561.257935,1715.454590 1661.624268,1615.042236 
	C1671.220459,1605.441528 1671.105225,1601.601929 1661.399414,1591.890137 
	C1625.354858,1555.823975 1589.288574,1519.779663 1553.251587,1483.705933 
	C1550.529541,1480.981079 1547.974854,1478.088989 1543.874023,1473.704590 
	C1547.888672,1470.518799 1551.293335,1468.312988 1554.104858,1465.511719 
	C1589.517212,1430.227417 1624.843872,1394.857300 1660.191284,1359.508057 
	C1661.840942,1357.858521 1663.565552,1356.274170 1665.107056,1354.528442 
	C1669.580933,1349.461304 1669.553101,1343.711426 1664.999634,1338.556030 
	C1663.237793,1336.561401 1661.258667,1334.758301 1659.373535,1332.873047 
	C1603.288208,1276.786255 1547.198608,1220.703735 1491.126465,1164.603760 
	C1488.143799,1161.619385 1485.309204,1158.487061 1482.037598,1155.035156 
	C1485.722168,1151.208252 1488.654053,1148.061401 1491.692871,1145.021362 
	C1547.768677,1088.924927 1603.863037,1032.847290 1659.938110,976.750244 
	C1671.734253,964.949707 1671.750977,962.233887 1660.274170,950.753845 
	C1624.695190,915.164734 1589.102539,879.589355 1553.532471,843.991455 
	C1550.768921,841.225647 1548.139771,838.325439 1545.048462,835.066406 
	C1548.157227,831.798645 1550.602173,829.116821 1553.164551,826.552307 
	C1581.194214,798.495972 1609.242676,770.458435 1637.285156,742.414856 
	C1646.004272,733.695435 1654.774048,725.025757 1663.421387,716.235779 
	C1670.383057,709.159241 1670.258057,704.009155 1663.187622,696.695435 
	C1661.566406,695.018433 1659.893433,693.391357 1658.243896,691.741760 
	C1565.866821,599.364746 1473.489746,506.987671 1381.112427,414.610931 
	C1373.807129,407.305664 1366.567749,399.932678 1359.172119,392.719879 
	C1352.186279,385.906616 1347.627930,386.108154 1340.791626,392.946503 
	C1238.767822,495.000488 1136.729370,597.039978 1034.680176,699.068481 
	C1028.314819,705.432495 1028.158569,707.263977 1034.101562,713.730652 
	C1036.129639,715.937439 1038.308228,718.006348 1040.429077,720.127319 
	C1075.776001,755.476929 1111.129272,790.820435 1146.464722,826.181702 
	C1149.235474,828.954468 1151.884766,831.848389 1155.093506,835.213379 
	C1151.821655,838.649231 1149.160400,841.563354 1146.373901,844.352356 
	C1109.391968,881.366333 1072.375366,918.345642 1035.411377,955.377319 
	C1027.524292,963.278687 1027.619995,964.299805 1035.495483,972.174561 
	C1093.469238,1030.143555 1151.441650,1088.113647 1209.400513,1146.097412 
	C1212.189209,1148.887207 1214.845459,1151.809570 1218.314575,1155.460815 
	C1156.618774,1217.151489 1095.390747,1278.374512 1033.083496,1340.611572 
z"/>
<path fill="#C7984A" opacity="1.000000" stroke="none" 
	d="
M1033.623047,1340.104492 
	C1095.390747,1278.374512 1156.618774,1217.151489 1218.314575,1155.460815 
	C1214.845459,1151.809570 1212.189209,1148.887207 1209.400513,1146.097412 
	C1151.441650,1088.113647 1093.469238,1030.143555 1035.495483,972.174561 
	C1027.619995,964.299805 1027.524292,963.278687 1035.411377,955.377319 
	C1072.375366,918.345642 1109.391968,881.366333 1146.373901,844.352356 
	C1149.160400,841.563354 1151.821655,838.649231 1155.093506,835.213379 
	C1151.884766,831.848389 1149.235474,828.954468 1146.464722,826.181702 
	C1111.129272,790.820435 1075.776001,755.476929 1040.429077,720.127319 
	C1038.308228,718.006348 1036.129639,715.937439 1034.101562,713.730652 
	C1028.158569,707.263977 1028.314819,705.432495 1034.680176,699.068481 
	C1136.729370,597.039978 1238.767822,495.000488 1340.791626,392.946503 
	C1347.627930,386.108154 1352.186279,385.906616 1359.172119,392.719879 
	C1366.567749,399.932678 1373.807129,407.305664 1381.112427,414.610931 
	C1473.489746,506.987671 1565.866821,599.364746 1658.243896,691.741760 
	C1659.893433,693.391357 1661.566406,695.018433 1663.187622,696.695435 
	C1670.258057,704.009155 1670.383057,709.159241 1663.421387,716.235779 
	C1654.774048,725.025757 1646.004272,733.695435 1637.285156,742.414856 
	C1609.242676,770.458435 1581.194214,798.495972 1553.164551,826.552307 
	C1550.602173,829.116821 1548.157227,831.798645 1545.048462,835.066406 
	C1548.139771,838.325439 1550.768921,841.225647 1553.532471,843.991455 
	C1589.102539,879.589355 1624.695190,915.164734 1660.274170,950.753845 
	C1671.750977,962.233887 1671.734253,964.949707 1659.938110,976.750244 
	C1603.863037,1032.847290 1547.768677,1088.924927 1491.692871,1145.021362 
	C1488.654053,1148.061401 1485.722168,1151.208252 1482.037598,1155.035156 
	C1485.309204,1158.487061 1488.143799,1161.619385 1491.126465,1164.603760 
	C1547.198608,1220.703735 1603.288208,1276.786255 1659.373535,1332.873047 
	C1661.258667,1334.758301 1663.237793,1336.561401 1664.999634,1338.556030 
	C1669.553101,1343.711426 1669.580933,1349.461304 1665.107056,1354.528442 
	C1663.565552,1356.274170 1661.840942,1357.858521 1660.191284,1359.508057 
	C1624.843872,1394.857300 1589.517212,1430.227417 1554.104858,1465.511719 
	C1551.293335,1468.312988 1547.888672,1470.518799 1543.874023,1473.704590 
	C1547.974854,1478.088989 1550.529541,1480.981079 1553.251587,1483.705933 
	C1589.288574,1519.779663 1625.354858,1555.823975 1661.399414,1591.890137 
	C1671.105225,1601.601929 1671.220459,1605.441528 1661.624268,1615.042236 
	C1561.257935,1715.454590 1460.864136,1815.839355 1360.453613,1916.207520 
	C1351.884155,1924.773315 1347.986450,1924.638794 1338.907104,1915.562378 
	C1239.208740,1815.895996 1139.559814,1716.180054 1039.811646,1616.563721 
	C1026.446777,1603.216675 1026.187500,1604.504761 1040.215332,1590.505493 
	C1075.599854,1555.193359 1110.927979,1519.824707 1146.263306,1484.463257 
	C1149.051514,1481.672974 1151.719604,1478.762939 1155.079590,1475.242188 
	C1151.949341,1471.941284 1149.329224,1469.050049 1146.574463,1466.293335 
	C1110.769287,1430.459351 1074.942383,1394.646851 1039.131226,1358.818604 
	C1036.776733,1356.463013 1034.400513,1354.115234 1032.219116,1351.603638 
	C1028.849365,1347.723877 1028.628662,1343.947021 1033.623047,1340.104492 
M1345.529663,1024.857788 
	C1342.411987,1021.859070 1339.243042,1018.911621 1336.184204,1015.854004 
	C1282.259033,961.950684 1228.351562,908.029846 1174.420654,854.132141 
	C1171.659790,851.372925 1168.724243,848.788452 1167.398804,847.550415 
	C1127.614746,887.107788 1088.559692,925.940308 1050.587524,963.696167 
	C1109.882324,1022.998108 1169.814331,1082.937256 1230.332397,1143.462524 
	C1268.289429,1105.488403 1307.076050,1066.684570 1346.635498,1027.704956 
	C1346.813354,1027.510986 1347.172363,1027.268921 1347.135986,1027.131714 
	C1347.010132,1026.657349 1346.746460,1026.219482 1345.529663,1024.857788 
M1446.253174,736.744995 
	C1475.420288,765.907043 1504.587402,795.069031 1532.634155,823.110962 
	C1572.418091,783.312378 1611.374878,744.341064 1650.828003,704.873352 
	C1649.054321,703.011597 1646.386841,700.092651 1643.594238,697.298767 
	C1594.826782,648.506836 1546.044312,599.729858 1497.264526,550.950317 
	C1450.841187,504.527222 1404.428345,458.093811 1357.982422,411.693298 
	C1350.394165,404.112427 1349.923218,404.068939 1342.805908,411.182739 
	C1246.401367,507.540436 1150.023438,603.924866 1053.668457,700.332214 
	C1051.664917,702.336853 1050.011353,704.691406 1049.188843,705.683411 
	C1088.752441,745.230835 1127.559692,784.022156 1166.956543,823.402710 
	C1168.996582,821.467712 1171.908203,818.829346 1174.683960,816.055115 
	C1224.183594,766.581421 1273.666504,717.091187 1323.153687,667.604980 
	C1329.280640,661.478088 1335.332642,655.273743 1341.559448,649.250000 
	C1348.976685,642.074707 1351.334717,642.173462 1358.994995,649.506897 
	C1360.439087,650.889343 1361.831665,652.325500 1363.245605,653.739380 
	C1390.581665,681.074402 1417.917236,708.409729 1446.253174,736.744995 
M1600.165039,1550.835205 
	C1578.541626,1529.217407 1556.918213,1507.599609 1534.764282,1485.451416 
	C1531.135132,1488.875977 1528.207642,1491.503540 1525.429321,1494.280518 
	C1470.989624,1548.691772 1416.569580,1603.122681 1362.139160,1657.543213 
	C1350.187744,1669.492554 1349.806396,1669.488159 1337.599731,1657.283203 
	C1283.169922,1602.862061 1228.751221,1548.429932 1174.308960,1494.021240 
	C1171.557861,1491.271973 1168.623169,1488.706421 1165.892700,1486.165771 
	C1151.066772,1498.065063 1052.450928,1597.901245 1049.831055,1602.725220 
	C1150.485840,1703.380371 1250.751831,1803.646851 1349.904053,1902.799438 
	C1449.478149,1803.224854 1549.944214,1702.758423 1650.992432,1601.709717 
	C1635.014893,1585.716919 1618.089966,1568.776123 1600.165039,1550.835205 
M1206.748047,866.251587 
	C1253.966919,913.248779 1301.185303,960.246338 1348.416748,1007.230896 
	C1348.630127,1007.443115 1349.020386,1007.514038 1349.342285,1007.570435 
	C1349.665405,1007.627075 1350.006470,1007.582825 1348.041016,1007.582825 
	C1406.763062,948.863037 1464.335571,891.292725 1522.028809,833.601685 
	C1513.380127,822.470154 1356.017944,666.188110 1349.539307,662.545471 
	C1337.803833,671.590881 1181.095581,829.333252 1177.073486,836.421387 
	C1186.534668,845.933899 1196.141357,855.592773 1206.748047,866.251587 
M1400.261353,1599.261597 
	C1441.438599,1558.083984 1482.615967,1516.906372 1524.249756,1475.272217 
	C1466.248413,1416.455200 1409.055420,1358.457886 1351.047485,1299.634277 
	C1291.088257,1358.984741 1233.221558,1416.264038 1175.645996,1473.255127 
	C1186.409546,1487.655029 1344.299194,1644.381470 1351.504028,1648.002075 
	C1367.280029,1632.231689 1383.270630,1616.246582 1400.261353,1599.261597 
M1286.880005,1343.880005 
	C1306.835083,1323.924683 1326.790283,1303.969360 1345.240601,1285.518921 
	C1305.524658,1245.766724 1266.548096,1206.754761 1228.576172,1168.748291 
	C1169.458008,1227.865112 1109.490479,1287.831177 1050.732422,1346.587646 
	C1088.894165,1384.698364 1127.894775,1423.646973 1167.529907,1463.229248 
	C1206.351562,1424.407837 1246.115723,1384.643921 1286.880005,1343.880005 
M1559.165771,869.834229 
	C1551.200195,861.893616 1543.234619,853.953003 1536.156494,846.897156 
	C1475.287476,907.755798 1415.143188,967.889771 1354.739014,1028.283569 
	C1392.912109,1066.418457 1431.907837,1105.375488 1469.586914,1143.016846 
	C1530.538208,1082.066528 1590.470581,1022.135071 1650.967651,961.638855 
	C1621.343140,932.013428 1590.754395,901.423828 1559.165771,869.834229 
M1491.252319,1421.745483 
	C1498.323730,1428.816772 1505.372437,1435.910767 1512.472656,1442.953003 
	C1519.701050,1450.122437 1526.979858,1457.240967 1533.214478,1463.376099 
	C1573.091919,1423.606323 1611.953125,1384.850220 1649.915649,1346.990112 
	C1590.473511,1287.547852 1530.491577,1227.565674 1471.437012,1168.510986 
	C1433.276978,1206.653320 1394.277832,1245.634521 1354.700562,1285.193481 
	C1399.366211,1329.859131 1444.809204,1375.302246 1491.252319,1421.745483 
M1359.621094,1053.290283 
	C1350.075562,1043.914307 1350.056274,1043.895020 1340.873047,1053.072998 
	C1309.281250,1084.646851 1277.697021,1116.228149 1246.136597,1147.833374 
	C1243.864746,1150.108521 1241.809448,1152.600098 1239.770508,1154.861206 
	C1248.254639,1166.022461 1344.264648,1261.257812 1350.630249,1265.000854 
	C1365.602051,1252.713135 1456.148926,1160.960938 1459.767212,1154.416626 
	C1459.446167,1153.839966 1459.236572,1153.152100 1458.788086,1152.702271 
	C1426.080688,1119.889771 1393.354370,1087.096191 1359.621094,1053.290283 
z"/>
<path fill="#5B056A" opacity="1.000000" stroke="none" 
	d="
M1445.753052,736.244995 
	C1417.917236,708.409729 1390.581665,681.074402 1363.245605,653.739380 
	C1361.831665,652.325500 1360.439087,650.889343 1358.994995,649.506897 
	C1351.334717,642.173462 1348.976685,642.074707 1341.559448,649.250000 
	C1335.332642,655.273743 1329.280640,661.478088 1323.153687,667.604980 
	C1273.666504,717.091187 1224.183594,766.581421 1174.683960,816.055115 
	C1171.908203,818.829346 1168.996582,821.467712 1166.956543,823.402710 
	C1127.559692,784.022156 1088.752441,745.230835 1049.188843,705.683411 
	C1050.011353,704.691406 1051.664917,702.336853 1053.668457,700.332214 
	C1150.023438,603.924866 1246.401367,507.540436 1342.805908,411.182739 
	C1349.923218,404.068939 1350.394165,404.112427 1357.982422,411.693298 
	C1404.428345,458.093811 1450.841187,504.527222 1497.264526,550.950317 
	C1546.044312,599.729858 1594.826782,648.506836 1643.594238,697.298767 
	C1646.386841,700.092651 1649.054321,703.011597 1650.828003,704.873352 
	C1611.374878,744.341064 1572.418091,783.312378 1532.634155,823.110962 
	C1504.587402,795.069031 1475.420288,765.907043 1445.753052,736.244995 
z"/>
<path fill="#5B056A" opacity="1.000000" stroke="none" 
	d="
M1600.665039,1551.335205 
	C1618.089966,1568.776123 1635.014893,1585.716919 1650.992432,1601.709717 
	C1549.944214,1702.758423 1449.478149,1803.224854 1349.904053,1902.799438 
	C1250.751831,1803.646851 1150.485840,1703.380371 1049.831055,1602.725220 
	C1052.450928,1597.901245 1151.066772,1498.065063 1165.892700,1486.165771 
	C1168.623169,1488.706421 1171.557861,1491.271973 1174.308960,1494.021240 
	C1228.751221,1548.429932 1283.169922,1602.862061 1337.599731,1657.283203 
	C1349.806396,1669.488159 1350.187744,1669.492554 1362.139160,1657.543213 
	C1416.569580,1603.122681 1470.989624,1548.691772 1525.429321,1494.280518 
	C1528.207642,1491.503540 1531.135132,1488.875977 1534.764282,1485.451416 
	C1556.918213,1507.599609 1578.541626,1529.217407 1600.665039,1551.335205 
z"/>
<path fill="#5A046A" opacity="1.000000" stroke="none" 
	d="
M1206.248047,865.751587 
	C1196.141357,855.592773 1186.534668,845.933899 1177.073486,836.421387 
	C1181.095581,829.333252 1337.803833,671.590881 1349.539307,662.545471 
	C1356.017944,666.188110 1513.380127,822.470154 1522.028809,833.601685 
	C1464.335571,891.292725 1406.763062,948.863037 1348.041016,1007.582825 
	C1350.006470,1007.582825 1349.665405,1007.627075 1349.342285,1007.570435 
	C1349.020386,1007.514038 1348.630127,1007.443115 1348.416748,1007.230896 
	C1301.185303,960.246338 1253.966919,913.248779 1206.248047,865.751587 
z"/>
<path fill="#5A046A" opacity="1.000000" stroke="none" 
	d="
M1399.761230,1599.761475 
	C1383.270630,1616.246582 1367.280029,1632.231689 1351.504028,1648.002075 
	C1344.299194,1644.381470 1186.409546,1487.655029 1175.645996,1473.255127 
	C1233.221558,1416.264038 1291.088257,1358.984741 1351.047485,1299.634277 
	C1409.055420,1358.457886 1466.248413,1416.455200 1524.249756,1475.272217 
	C1482.615967,1516.906372 1441.438599,1558.083984 1399.761230,1599.761475 
z"/>
<path fill="#5B056A" opacity="1.000000" stroke="none" 
	d="
M1286.380005,1344.380005 
	C1246.115723,1384.643921 1206.351562,1424.407837 1167.529907,1463.229248 
	C1127.894775,1423.646973 1088.894165,1384.698364 1050.732422,1346.587646 
	C1109.490479,1287.831177 1169.458008,1227.865112 1228.576172,1168.748291 
	C1266.548096,1206.754761 1305.524658,1245.766724 1345.240601,1285.518921 
	C1326.790283,1303.969360 1306.835083,1323.924683 1286.380005,1344.380005 
z"/>
<path fill="#5B056A" opacity="1.000000" stroke="none" 
	d="
M1345.862549,1027.880737 
	C1307.076050,1066.684570 1268.289429,1105.488403 1230.332397,1143.462524 
	C1169.814331,1082.937256 1109.882324,1022.998108 1050.587524,963.696167 
	C1088.559692,925.940308 1127.614746,887.107788 1167.398804,847.550415 
	C1168.724243,848.788452 1171.659790,851.372925 1174.420654,854.132141 
	C1228.351562,908.029846 1282.259033,961.950684 1336.184204,1015.854004 
	C1339.243042,1018.911621 1342.411987,1021.859070 1345.876831,1025.845093 
	C1346.103638,1027.181885 1345.983154,1027.531250 1345.862549,1027.880737 
z"/>
<path fill="#5B056A" opacity="1.000000" stroke="none" 
	d="
M1559.665771,870.334229 
	C1590.754395,901.423828 1621.343140,932.013428 1650.967651,961.638855 
	C1590.470581,1022.135071 1530.538208,1082.066528 1469.586914,1143.016846 
	C1431.907837,1105.375488 1392.912109,1066.418457 1354.739014,1028.283569 
	C1415.143188,967.889771 1475.287476,907.755798 1536.156494,846.897156 
	C1543.234619,853.953003 1551.200195,861.893616 1559.665771,870.334229 
z"/>
<path fill="#5B056A" opacity="1.000000" stroke="none" 
	d="
M1490.752197,1421.245361 
	C1444.809204,1375.302246 1399.366211,1329.859131 1354.700562,1285.193481 
	C1394.277832,1245.634521 1433.276978,1206.653320 1471.437012,1168.510986 
	C1530.491577,1227.565674 1590.473511,1287.547852 1649.915649,1346.990112 
	C1611.953125,1384.850220 1573.091919,1423.606323 1533.214478,1463.376099 
	C1526.979858,1457.240967 1519.701050,1450.122437 1512.472656,1442.953003 
	C1505.372437,1435.910767 1498.323730,1428.816772 1490.752197,1421.245361 
z"/>
<path fill="#5C066A" opacity="1.000000" stroke="none" 
	d="
M1360.125244,1053.795654 
	C1393.354370,1087.096191 1426.080688,1119.889771 1458.788086,1152.702271 
	C1459.236572,1153.152100 1459.446167,1153.839966 1459.761108,1154.420044 
	C1456.148926,1160.960938 1365.602051,1252.713135 1350.630249,1265.000854 
	C1344.264648,1261.257812 1248.254639,1166.022461 1239.770508,1154.861206 
	C1241.809448,1152.600098 1243.864746,1150.108521 1246.136597,1147.833374 
	C1277.697021,1116.228149 1309.281250,1084.646851 1340.873047,1053.072998 
	C1350.056274,1043.895020 1350.075562,1043.914307 1360.125244,1053.795654 
z"/>
<path fill="#985857" opacity="1.000000" stroke="none" 
	d="
M1346.249023,1027.792847 
	C1345.983154,1027.531250 1346.103638,1027.181885 1346.379639,1026.300049 
	C1346.746460,1026.219482 1347.010132,1026.657349 1347.135986,1027.131714 
	C1347.172363,1027.268921 1346.813354,1027.510986 1346.249023,1027.792847 
z"/>
</svg>